<svg width="380" height="114" viewBox="0 0 380 114" fill="none" xmlns="http://www.w3.org/2000/svg">
<path d="M31.1067 91.0185C27.053 91.0185 23.3814 90.3737 20.0912 89.0847C16.8603 87.7366 14.0692 85.7443 11.7195 83.1072C9.42823 80.4701 7.66575 77.2177 6.43202 73.3499C5.19828 69.4238 4.58142 64.8819 4.58142 59.7249C4.58142 54.5679 5.19828 49.9969 6.43202 46.0119C7.66575 41.9683 9.42823 38.5987 11.7195 35.903C14.0692 33.1487 16.8603 31.0683 20.0912 29.6618C23.3814 28.2554 27.053 27.5521 31.1067 27.5521C36.6289 27.5521 41.2114 28.7242 44.854 31.0683C48.4967 33.4124 51.4048 36.9578 53.5783 41.7046L43.6203 46.9788C42.7391 44.2245 41.2995 42.0269 39.3022 40.3861C37.305 38.6866 34.5732 37.8369 31.1067 37.8369C26.759 37.8369 23.2933 39.3019 20.7081 42.232C18.1821 45.1622 16.9188 49.2643 16.9188 54.5386V64.208C16.9188 69.5405 18.1821 73.6432 20.7081 76.5145C23.2933 79.3274 26.759 80.7338 31.1067 80.7338C34.5732 80.7338 37.3931 79.7964 39.5666 77.9209C41.7993 76.0454 43.4145 73.7311 44.4134 70.9765L53.8427 76.5145C51.61 81.0854 48.6434 84.66 44.9422 87.2387C41.241 89.7584 36.6289 91.0185 31.1067 91.0185ZM81.3022 91.0185C78.012 91.0185 75.0454 90.4616 72.4017 89.3484C69.8165 88.2352 67.5845 86.6234 65.7043 84.5137C63.8833 82.404 62.4733 79.8843 61.4744 76.954C60.4754 73.9652 59.9763 70.6249 59.9763 66.933C59.9763 63.241 60.4754 59.93 61.4744 56.9999C62.4733 54.0697 63.8833 51.5792 65.7043 49.5281C67.5845 47.4184 69.8165 45.8068 72.4017 44.6934C75.0454 43.5799 78.012 43.0232 81.3022 43.0232C84.5924 43.0232 87.559 43.5799 90.2028 44.6934C92.8465 45.8068 95.0792 47.4184 96.9002 49.5281C98.7804 51.5792 100.219 54.0697 101.218 56.9999C102.217 59.93 102.716 63.241 102.716 66.933C102.716 70.6249 102.217 73.9652 101.218 76.954C100.219 79.8843 98.7804 82.404 96.9002 84.5137C95.0792 86.6234 92.8465 88.2352 90.2028 89.3484C87.559 90.4616 84.5924 91.0185 81.3022 91.0185ZM81.3022 81.9645C84.2984 81.9645 86.6482 81.0559 88.3522 79.2395C90.0561 77.423 90.9078 74.7564 90.9078 71.2402V62.7136C90.9078 59.256 90.0561 56.6189 88.3522 54.8023C86.6482 52.9856 84.2984 52.0773 81.3022 52.0773C78.3645 52.0773 76.0444 52.9856 74.3404 54.8023C72.6365 56.6189 71.7849 59.256 71.7849 62.7136V71.2402C71.7849 74.7564 72.6365 77.423 74.3404 79.2395C76.0444 81.0559 78.3645 81.9645 81.3022 81.9645ZM141.269 82.3161H140.828C140.005 84.9532 138.449 87.0629 136.157 88.6452C133.866 90.2274 131.193 91.0185 128.138 91.0185C122.322 91.0185 117.857 88.9384 114.743 84.7774C111.688 80.6164 110.161 74.6685 110.161 66.933C110.161 59.256 111.688 53.3665 114.743 49.2643C117.857 45.1035 122.322 43.0232 128.138 43.0232C131.193 43.0232 133.866 43.8143 136.157 45.3966C138.449 46.9203 140.005 49.0006 140.828 51.6377H141.269V24.915H152.548V89.9637H141.269V82.3161ZM131.751 81.7008C134.453 81.7008 136.716 81.0559 138.537 79.7669C140.358 78.4779 141.269 76.6319 141.269 74.229V59.637C141.269 57.41 140.358 55.6227 138.537 54.2748C136.716 52.927 134.453 52.2531 131.751 52.2531C128.813 52.2531 126.434 53.2493 124.613 55.2418C122.851 57.1757 121.969 59.7834 121.969 63.0652V70.9765C121.969 74.2585 122.851 76.8661 124.613 78.7999C126.434 80.7338 128.813 81.7008 131.751 81.7008ZM184.15 91.0185C180.743 91.0185 177.688 90.4616 174.986 89.3484C172.342 88.1761 170.08 86.565 168.2 84.5137C166.379 82.404 164.969 79.8843 163.97 76.954C162.971 73.9652 162.472 70.6249 162.472 66.933C162.472 63.2996 162.942 60.0179 163.882 57.0878C164.881 54.1576 166.291 51.6671 168.112 49.616C169.933 47.5063 172.166 45.8947 174.809 44.7813C177.453 43.6092 180.449 43.0232 183.798 43.0232C187.381 43.0232 190.495 43.6385 193.139 44.8692C195.783 46.0998 197.956 47.77 199.66 49.8797C201.364 51.9894 202.627 54.4507 203.45 57.2636C204.331 60.0179 204.771 62.9773 204.771 66.1418V69.8338H174.192V70.9765C174.192 74.3169 175.132 77.0123 177.012 79.0637C178.893 81.0559 181.683 82.0524 185.384 82.0524C188.204 82.0524 190.495 81.4666 192.258 80.2943C194.079 79.122 195.695 77.6277 197.105 75.8112L203.185 82.5798C201.305 85.2169 198.72 87.2971 195.43 88.821C192.199 90.2858 188.439 91.0185 184.15 91.0185ZM183.974 51.4619C180.978 51.4619 178.599 52.4582 176.836 54.4507C175.074 56.4431 174.192 59.0216 174.192 62.1862V62.8894H193.051V62.0983C193.051 58.9337 192.258 56.3845 190.672 54.4507C189.144 52.4582 186.912 51.4619 183.974 51.4619ZM215.401 89.9637V28.607H227.033V79.679H251.267V89.9637H215.401ZM294.749 89.9637C292.281 89.9637 290.313 89.2605 288.844 87.854C287.434 86.3892 286.553 84.4553 286.201 82.0524H285.672C284.908 85.0411 283.351 87.2971 281.001 88.821C278.652 90.2858 275.744 91.0185 272.277 91.0185C267.577 91.0185 263.964 89.7879 261.438 87.3266C258.912 84.8653 257.649 81.5833 257.649 77.4814C257.649 72.7346 259.352 69.2185 262.76 66.933C266.167 64.5889 271.014 63.4168 277.3 63.4168H285.143V60.0765C285.143 57.498 284.468 55.5055 283.116 54.099C281.765 52.6926 279.591 51.9894 276.595 51.9894C273.951 51.9894 271.807 52.5753 270.162 53.7474C268.576 54.8608 267.224 56.2087 266.108 57.791L259.411 51.8135C261.115 49.1764 263.377 47.0667 266.197 45.4845C269.017 43.8436 272.747 43.0232 277.388 43.0232C283.616 43.0232 288.345 44.4296 291.576 47.2426C294.807 50.0555 296.423 54.099 296.423 59.3733V80.9975H301.005V89.9637H294.749ZM276.066 82.8435C278.592 82.8435 280.737 82.2866 282.499 81.1733C284.262 80.0601 285.143 78.4188 285.143 76.2507V70.1854H277.917C272.042 70.1854 269.105 72.0609 269.105 75.8112V77.3056C269.105 79.1811 269.692 80.5875 270.867 81.525C272.101 82.404 273.834 82.8435 276.066 82.8435ZM310.135 24.915H321.414V51.6377H321.767C322.59 49.0006 324.146 46.9203 326.438 45.3966C328.729 43.8143 331.402 43.0232 334.457 43.0232C340.331 43.0232 344.797 45.1035 347.852 49.2643C350.966 53.3665 352.522 59.256 352.522 66.933C352.522 74.6685 350.966 80.6164 347.852 84.7774C344.797 88.9384 340.331 91.0185 334.457 91.0185C331.402 91.0185 328.729 90.2274 326.438 88.6452C324.205 87.0629 322.648 84.9532 321.767 82.3161H321.414V89.9637H310.135V24.915ZM330.844 81.7008C333.781 81.7008 336.161 80.7338 337.982 78.7999C339.803 76.8661 340.714 74.2585 340.714 70.9765V63.0652C340.714 59.7834 339.803 57.1757 337.982 55.2418C336.161 53.2493 333.781 52.2531 330.844 52.2531C328.141 52.2531 325.879 52.927 324.058 54.2748C322.296 55.6227 321.414 57.41 321.414 59.637V74.229C321.414 76.6319 322.296 78.4779 324.058 79.7669C325.879 81.0559 328.141 81.7008 330.844 81.7008Z" fill="#0E0E10"/>
<path d="M368.208 90.9309C365.799 90.9309 364.008 90.3451 362.832 89.1728C361.716 87.9421 361.158 86.3894 361.158 84.5139V82.9316C361.158 81.0561 361.716 79.5034 362.832 78.2727C364.008 77.0421 365.799 76.4268 368.208 76.4268C370.675 76.4268 372.467 77.0421 373.583 78.2727C374.699 79.5034 375.258 81.0561 375.258 82.9316V84.5139C375.258 86.3894 374.699 87.9421 373.583 89.1728C372.467 90.3451 370.675 90.9309 368.208 90.9309Z" fill="#8946FF"/>
</svg>
